<svg width="14" height="20" viewBox="0 0 14 20" fill="none" xmlns="http://www.w3.org/2000/svg">
<path d="M7.00002 0.842285C6.84117 0.842285 6.68224 0.902741 6.56057 1.02295L5.53518 2.03695L4.14032 1.67074C3.80824 1.58282 3.46902 1.78059 3.3786 2.111L3.00018 3.50179L1.6094 3.88102C1.27856 3.97102 1.08246 4.31107 1.16913 4.64274L1.53453 6.0376L0.52053 7.06217C0.279696 7.30551 0.279696 7.69775 0.52053 7.94108L1.53453 8.96647L1.16832 10.3613C1.08123 10.693 1.27775 11.0326 1.60858 11.123L2.99937 11.5023L3.3786 12.8931C3.46902 13.2235 3.80824 13.4213 4.14032 13.3325L5.53518 12.9671L6.56057 13.9811C6.68224 14.1015 6.84209 14.161 7.00084 14.161C7.15959 14.161 7.31862 14.1011 7.44029 13.9811L8.46568 12.9671L9.85972 13.3333C10.1931 13.4217 10.531 13.2235 10.6214 12.8931L10.9999 11.5023L12.3906 11.123C12.7215 11.033 12.9176 10.693 12.8309 10.3613L12.4655 8.96647L13.4795 7.94108C13.7203 7.69775 13.7203 7.30592 13.4795 7.06217L12.4655 6.0376L12.8317 4.64274C12.9188 4.31107 12.7223 3.97144 12.3915 3.88102L11.0007 3.50179L10.6214 2.111C10.531 1.78059 10.1931 1.58282 9.85972 1.67074L8.46487 2.03695L7.43948 1.02295C7.31781 0.902741 7.15888 0.842285 7.00002 0.842285ZM5.28615 13.894L3.55276 14.349C3.44942 14.376 3.34629 14.3731 3.24921 14.3498V18.5417C3.24921 18.7721 3.37588 18.9843 3.5788 19.0926C3.78171 19.2018 4.02922 19.1896 4.22089 19.0617L6.88365 17.286C6.95448 17.2397 7.04477 17.2393 7.11477 17.286L9.77834 19.0609C9.88334 19.1313 10.0038 19.1667 10.125 19.1667C10.2263 19.1667 10.3271 19.1422 10.4196 19.0926C10.6225 18.9843 10.75 18.7721 10.75 18.5417V14.3498C10.6534 14.3727 10.5498 14.376 10.4465 14.349L8.71308 13.894L7.43948 15.153C7.31781 15.2734 7.15796 15.3337 6.99921 15.3337C6.84046 15.3337 6.68142 15.273 6.55975 15.153L5.28615 13.894Z" fill="url(#paint0_linear_64_945)"/>
<defs>
<linearGradient id="paint0_linear_64_945" x1="7.00002" y1="0.842285" x2="7.00002" y2="19.1668" gradientUnits="userSpaceOnUse">
<stop stop-color="#F0DE41"/>
<stop offset="1" stop-color="#F78009"/>
</linearGradient>
</defs>
</svg>
