<svg width="23" height="23" viewBox="0 0 23 23" fill="none" xmlns="http://www.w3.org/2000/svg">
<path d="M11.5001 0.666626C5.52662 0.666626 0.666748 5.5265 0.666748 11.5C0.666748 17.4734 5.52662 22.3333 11.5001 22.3333C17.4735 22.3333 22.3334 17.4734 22.3334 11.5C22.3334 5.5265 17.4735 0.666626 11.5001 0.666626ZM11.5001 2.29163C16.5953 2.29163 20.7084 6.40471 20.7084 11.5C20.7084 16.5952 16.5953 20.7083 11.5001 20.7083C6.40483 20.7083 2.29175 16.5952 2.29175 11.5C2.29175 6.40471 6.40483 2.29163 11.5001 2.29163ZM11.5001 6.08329C11.2128 6.08329 10.9372 6.19743 10.734 6.40059C10.5309 6.60376 10.4167 6.87931 10.4167 7.16663C10.4167 7.45394 10.5309 7.72949 10.734 7.93266C10.9372 8.13582 11.2128 8.24996 11.5001 8.24996C11.7874 8.24996 12.0629 8.13582 12.2661 7.93266C12.4693 7.72949 12.5834 7.45394 12.5834 7.16663C12.5834 6.87931 12.4693 6.60376 12.2661 6.40059C12.0629 6.19743 11.7874 6.08329 11.5001 6.08329ZM11.4874 9.86332C11.2721 9.86669 11.0669 9.95537 10.917 10.1099C10.767 10.2644 10.6845 10.4722 10.6876 10.6875V16.6458C10.6861 16.7535 10.706 16.8604 10.7461 16.9603C10.7862 17.0602 10.8459 17.1511 10.9215 17.2278C10.9971 17.3045 11.0871 17.3653 11.1865 17.4069C11.2858 17.4485 11.3924 17.4699 11.5001 17.4699C11.6078 17.4699 11.7144 17.4485 11.8137 17.4069C11.913 17.3653 12.0031 17.3045 12.0787 17.2278C12.1543 17.1511 12.2139 17.0602 12.2541 16.9603C12.2942 16.8604 12.3141 16.7535 12.3126 16.6458V10.6875C12.3141 10.5787 12.2939 10.4708 12.2529 10.37C12.212 10.2692 12.1513 10.1777 12.0743 10.1009C11.9973 10.024 11.9057 9.96337 11.8049 9.92257C11.7041 9.88177 11.5961 9.86162 11.4874 9.86332Z" fill="#F2EEFC"/>
</svg>
