<svg width="170" height="143" viewBox="0 0 170 143" fill="none" xmlns="http://www.w3.org/2000/svg">
<path d="M166.051 1.50206C162.509 -12.0898 153.026 -27.171 142.289 -36.5598C97.3513 -75.869 24.8329 -58.9056 5.56728 -3.78956C-0.436478 13.3855 -0.0420134 52.0824 1.40173 70.8223C2.91647 90.4467 13.5039 109.013 27.8466 122.597L34.5052 116.164C47.5225 101.461 50.1102 87.2414 47.1439 68.1916C29.2036 70.981 24.5095 35.3382 39.223 32.201C47.6882 30.3943 50.9544 40.8793 51.8774 40.2065C55.2619 30.3565 61.3367 22.4644 69.7704 16.1447C83.6871 5.72024 107.024 0.390823 98.8109 -21.7659C97.4933 -25.3189 95.0082 -28.4712 92.9097 -31.6008C107.181 -26.8988 113.848 -10.0639 129.682 -8.25719C132.751 -7.90946 135.867 -8.47642 138.936 -8.05309C142.967 -6.73019 148.782 19.7355 147.393 24.6264C134.1 28.1492 126.778 34.9527 132.53 48.7336C134.439 53.2995 142.707 62.3179 139.015 66.6268C135.985 70.1571 131.504 70.0739 133.074 77.1722L126.652 76.628L107.907 85.1928C115.615 88.4207 124.285 88.2998 132.356 86.3267C133.887 97.8776 125.043 97.235 116.593 93.8786L115.804 100.682C132.151 95.4964 130.747 112.074 116.98 113.533C100.917 115.234 79.5373 99.8128 67.2694 90.8549C66.6699 90.7339 66.7645 91.5806 66.8908 91.9736C68.6501 97.3711 76.3737 108.62 80.3183 113.133C83.695 116.995 95.3317 125.432 95.8129 129.136C95.9234 129.967 95.2765 131.018 95.3869 131.963C95.8208 135.63 96.4677 139.334 96.8859 143C132.254 139.001 162.406 110.464 167.748 76.7565C170.367 60.1861 170.241 17.4979 166.067 1.50206H166.051Z" fill="url(#paint0_linear_65_3460)"/>
<path d="M88.1919 39.8361C102.937 49.9053 121.169 45.9441 125.201 28.1794C112.302 21.1567 99.016 20.8165 85.0283 25.1027L101.754 27.5822L112.633 32.2766C103.631 30.9688 94.2903 33.0326 88.1919 39.8361Z" fill="url(#paint1_linear_65_3460)"/>
<defs>
<linearGradient id="paint0_linear_65_3460" x1="85" y1="-58" x2="85" y2="143" gradientUnits="userSpaceOnUse">
<stop stop-color="white" stop-opacity="0.4"/>
<stop offset="1" stop-color="white" stop-opacity="0.1"/>
</linearGradient>
<linearGradient id="paint1_linear_65_3460" x1="85" y1="-58" x2="85" y2="143" gradientUnits="userSpaceOnUse">
<stop stop-color="white" stop-opacity="0.4"/>
<stop offset="1" stop-color="white" stop-opacity="0.1"/>
</linearGradient>
</defs>
</svg>
