<svg width="64" height="64" viewBox="0 0 64 64" fill="none" xmlns="http://www.w3.org/2000/svg">
<rect width="64" height="64" rx="32" fill="#312651"/>
<path d="M31.5 17.4166C25.259 17.4166 19.9182 21.3463 17.8424 26.8759C17.7899 27.0107 17.7647 27.1547 17.7683 27.2994C17.7719 27.4441 17.8041 27.5866 17.8632 27.7187C17.9222 27.8508 18.0069 27.9699 18.1123 28.0691C18.2177 28.1683 18.3418 28.2455 18.4773 28.2964C18.6128 28.3473 18.757 28.3708 18.9016 28.3655C19.0463 28.3602 19.1884 28.3263 19.3198 28.2657C19.4513 28.2051 19.5694 28.119 19.6673 28.0125C19.7652 27.9059 19.841 27.781 19.8903 27.6449C21.6528 22.9501 26.1764 19.6041 31.5 19.6041C38.3588 19.6041 43.8958 25.1412 43.8958 32C43.8958 38.8587 38.3588 44.3958 31.5 44.3958C26.1764 44.3958 21.6528 41.0498 19.8903 36.355C19.841 36.2189 19.7652 36.094 19.6673 35.9874C19.5694 35.8809 19.4513 35.7948 19.3198 35.7342C19.1884 35.6736 19.0463 35.6397 18.9016 35.6344C18.757 35.6292 18.6128 35.6526 18.4773 35.7035C18.3418 35.7544 18.2177 35.8317 18.1123 35.9308C18.0069 36.03 17.9222 36.1491 17.8632 36.2812C17.8041 36.4133 17.7719 36.5559 17.7683 36.7005C17.7647 36.8452 17.7899 36.9892 17.8424 37.1241C19.9182 42.6537 25.259 46.5833 31.5 46.5833C39.541 46.5833 46.0833 40.041 46.0833 32C46.0833 23.9589 39.541 17.4166 31.5 17.4166ZM31.124 26.5198C30.9064 26.5199 30.6936 26.5849 30.5131 26.7065C30.3326 26.8281 30.1925 27.0008 30.1106 27.2025C30.0288 27.4042 30.009 27.6258 30.0538 27.8388C30.0986 28.0518 30.206 28.2466 30.3621 28.3983L32.8686 30.9048L18.0118 30.892C17.8669 30.8897 17.723 30.9163 17.5884 30.9702C17.4539 31.0241 17.3314 31.1042 17.228 31.2058C17.1247 31.3074 17.0426 31.4286 16.9864 31.5622C16.9303 31.6959 16.9013 31.8393 16.9012 31.9843C16.901 32.1292 16.9296 32.2728 16.9853 32.4065C17.0411 32.5403 17.1229 32.6617 17.226 32.7636C17.3291 32.8655 17.4514 32.9459 17.5858 33.0001C17.7202 33.0543 17.8641 33.0813 18.009 33.0795L32.8715 33.0923L30.3621 35.6016C30.2571 35.7024 30.1733 35.8231 30.1156 35.9567C30.0579 36.0903 30.0274 36.2341 30.0259 36.3796C30.0244 36.5251 30.052 36.6694 30.107 36.8041C30.162 36.9389 30.2433 37.0613 30.3462 37.1642C30.4491 37.2671 30.5715 37.3484 30.7062 37.4034C30.841 37.4584 30.9853 37.486 31.1308 37.4845C31.2763 37.483 31.4201 37.4525 31.5537 37.3948C31.6872 37.337 31.8079 37.2532 31.9087 37.1483L36.2837 32.7733C36.4888 32.5681 36.604 32.29 36.604 32C36.604 31.7099 36.4888 31.4318 36.2837 31.2266L31.9087 26.8516C31.8068 26.7467 31.6848 26.6632 31.55 26.6062C31.4152 26.5492 31.2704 26.5198 31.124 26.5198Z" fill="#F2EEFC"/>
</svg>
