<svg width="64" height="64" viewBox="0 0 64 64" fill="none" xmlns="http://www.w3.org/2000/svg">
<rect width="64" height="64" rx="32" fill="#312651"/>
<path d="M31.8649 17.4167C28.3814 17.4167 25.5225 18.3965 23.5479 20.2664C21.5732 22.1363 20.5628 24.8424 20.5628 27.9896V30.7268V30.7297C19.7314 31.3935 19.1045 32.314 19.1045 33.4583C19.1045 35.1804 20.3473 36.5719 21.9628 36.9447C22.6165 39.5369 23.7032 41.8461 25.234 43.5413C26.9127 45.4003 29.0991 46.5833 31.5003 46.5833C31.6453 46.5854 31.7892 46.5586 31.9237 46.5046C32.0582 46.4505 32.1806 46.3703 32.2838 46.2685C32.387 46.1667 32.469 46.0455 32.5249 45.9118C32.5808 45.778 32.6097 45.6345 32.6097 45.4896C32.6097 45.3446 32.5808 45.2011 32.5249 45.0674C32.469 44.9337 32.387 44.8124 32.2838 44.7107C32.1806 44.6089 32.0582 44.5287 31.9237 44.4746C31.7892 44.4206 31.6453 44.3938 31.5003 44.3958C29.8102 44.3958 28.2206 43.5839 26.8576 42.0745C25.4945 40.565 24.4076 38.3647 23.8654 35.7811C23.8138 35.5354 23.6791 35.3149 23.4841 35.1567C23.2891 34.9986 23.0456 34.9123 22.7945 34.9124C22.5708 34.9124 22.5573 34.9167 22.7503 34.9167C21.932 34.9167 21.292 34.2767 21.292 33.4583C21.292 32.8724 21.6285 32.395 22.1251 32.1595C22.213 32.1174 22.2949 32.0638 22.3687 32H25.2867V32.7292C25.2867 34.327 26.6056 35.6458 28.2034 35.6458C29.8012 35.6458 31.1201 34.327 31.1201 32.7292H32.5784C32.5784 34.327 33.8973 35.6458 35.4951 35.6458C37.0929 35.6458 38.4117 34.327 38.4117 32.7292V32H40.2503V36.7396C40.2503 38.5651 38.7945 40.0208 36.9691 40.0208H35.6275C35.4207 39.5847 35.0944 39.2162 34.6865 38.9581C34.2786 38.7 33.8059 38.5628 33.3232 38.5625C32.9881 38.5625 32.6562 38.6285 32.3466 38.7568C32.037 38.885 31.7556 39.073 31.5186 39.31C31.2817 39.547 31.0937 39.8283 30.9654 40.1379C30.8372 40.4476 30.7712 40.7794 30.7712 41.1146C30.7712 41.4497 30.8372 41.7816 30.9654 42.0912C31.0937 42.4009 31.2817 42.6822 31.5186 42.9192C31.7556 43.1562 32.037 43.3442 32.3466 43.4724C32.6562 43.6007 32.9881 43.6667 33.3232 43.6667C33.8057 43.6661 34.2781 43.5288 34.6857 43.2707C35.0933 43.0126 35.4193 42.6442 35.6261 42.2083H36.9691C39.8535 42.2083 42.2292 39.9426 42.4193 37.1042H42.4378C44.0486 37.1042 45.3545 35.7982 45.3545 34.1875V32.7292C45.3545 31.1184 44.0486 29.8125 42.4378 29.8125V29.4479C42.4378 28.3839 42.2245 27.4396 42.012 26.7605C42.9975 26.2026 43.464 24.9322 42.9505 23.8567C41.1245 20.0393 37.1679 17.4167 31.8649 17.4167ZM31.8649 19.6042C36.4713 19.6042 39.501 21.716 40.9766 24.8009C40.9909 24.8314 40.9885 24.8414 40.9339 24.8579C40.1273 25.1018 38.1764 25.4375 35.8753 25.4375C33.0954 25.4375 31.2463 24.9195 30.1089 24.4321C28.9715 23.9446 28.6278 23.5704 28.6278 23.5704C28.498 23.4406 28.3375 23.3455 28.1613 23.294C27.9851 23.2425 27.7987 23.2361 27.6194 23.2756C27.44 23.315 27.2735 23.399 27.1351 23.5197C26.9968 23.6404 26.8911 23.794 26.8277 23.9664C26.8277 23.9664 26.5839 24.7243 25.3636 25.6639C25.2498 25.7517 25.1542 25.8609 25.0826 25.9856C25.0109 26.1102 24.9645 26.2477 24.946 26.3903C24.9275 26.5328 24.9372 26.6776 24.9747 26.8164C25.0121 26.9552 25.0766 27.0853 25.1643 27.1992C25.252 27.3131 25.3613 27.4086 25.4859 27.4802C25.6105 27.5519 25.748 27.5983 25.8906 27.6168C26.0332 27.6353 26.178 27.6256 26.3168 27.5882C26.4555 27.5507 26.5856 27.4863 26.6995 27.3986C27.4153 26.8474 27.8537 26.2851 28.1991 25.8021C28.5629 26.054 28.5619 26.1498 29.2459 26.443C30.6606 27.0493 32.8219 27.625 35.8753 27.625C37.44 27.625 38.7862 27.4922 39.8843 27.3117C40.0556 27.8256 40.2503 28.577 40.2503 29.4479V29.8125H37.318H33.6722C33.4462 29.8128 33.226 29.8831 33.0416 30.0137C32.8572 30.1442 32.7178 30.3287 32.6425 30.5417H31.056C30.9807 30.3287 30.8412 30.1442 30.6569 30.0137C30.4725 29.8831 30.2522 29.8128 30.0263 29.8125H26.4118H22.7503V27.9896C22.7503 25.2976 23.5628 23.2643 25.0518 21.8543C26.5407 20.4444 28.7859 19.6042 31.8649 19.6042ZM27.4742 32H28.9326V32.7292C28.9326 33.1453 28.6196 33.4583 28.2034 33.4583C27.7873 33.4583 27.4742 33.1453 27.4742 32.7292V32ZM34.7659 32H36.2242V32.7292C36.2242 33.1453 35.9112 33.4583 35.4951 33.4583C35.0789 33.4583 34.7659 33.1453 34.7659 32.7292V32Z" fill="#F2EEFC"/>
</svg>
